<svg xmlns="http://www.w3.org/2000/svg" viewBox="0 0 512 512"><defs><style>.cls-1{fill:#fff;}</style></defs><title>Artboard 1</title><g id="Layer_2" data-name="Layer 2"><rect class="cls-1" x="157.55" y="249.23" width="96.84" height="18.92"/><rect class="cls-1" x="157.55" y="324.89" width="96.84" height="18.92"/><rect class="cls-1" x="157.55" y="173.57" width="96.84" height="18.92"/><polygon class="cls-1" points="326.69 152.93 302.29 179.89 291.44 170.28 278.89 184.44 289.59 193.92 289.54 193.98 303.56 206.67 340.72 165.62 326.69 152.93"/><polygon class="cls-1" points="337.85 322.22 324.87 308.47 311.62 320.98 299.1 307.72 285.35 320.7 297.86 333.96 284.6 346.47 297.58 360.23 310.84 347.72 323.35 360.97 337.11 347.99 324.6 334.73 337.85 322.22"/><polygon class="cls-1" points="326.97 229.34 302.56 256.31 291.72 246.69 279.17 260.85 289.87 270.33 289.82 270.39 303.84 283.09 341 242.03 326.97 229.34"/><path class="cls-1" d="M355.55,427.41H136.72a31.12,31.12,0,0,1-31.09-31.09V115.67a31.12,31.12,0,0,1,31.09-31.09H355.55a31.12,31.12,0,0,1,31.09,31.09V396.33A31.12,31.12,0,0,1,355.55,427.41ZM136.72,109.59a6.09,6.09,0,0,0-6.09,6.09V396.33a6.09,6.09,0,0,0,6.09,6.09H355.55a6.09,6.09,0,0,0,6.09-6.09V115.67a6.09,6.09,0,0,0-6.09-6.09Z"/></g></svg>