<svg xmlns="http://www.w3.org/2000/svg" viewBox="0 0 512 512"><defs><style>.cls-1{fill:#fff;}</style></defs><title>Artboard 10 copy</title><g id="Layer_2" data-name="Layer 2"><circle class="cls-1" cx="146.6" cy="188.5" r="28.77"/><circle class="cls-1" cx="256.52" cy="153.14" r="46.99"/><circle class="cls-1" cx="365.53" cy="188.5" r="28.77"/><path class="cls-1" d="M388.79,222.55h-48a20.88,20.88,0,0,0-11.43,3.51,43.78,43.78,0,0,0-34.91-17.32H216.19a43.78,43.78,0,0,0-34.91,17.32,20.88,20.88,0,0,0-11.43-3.51h-48c-14.83,0-26.85,16.54-26.85,36.95h0v36.95H415.64V259.5h0C415.64,239.09,403.62,222.55,388.79,222.55Z"/><rect class="cls-1" x="198.37" y="360.62" width="203.37" height="15.64"/><rect class="cls-1" x="198.37" y="324.97" width="203.37" height="15.64"/><rect class="cls-1" x="198.57" y="396.11" width="141.36" height="15.98"/><path class="cls-1" d="M126.43,361.2l.66-.66c16.68-.66,23.17-5,23.17-12v-.26c0-6-4.5-9.4-12.18-9.4-7.41,0-13.77,3-19.86,9.13L106,334.59c7.68-8.47,18-14.3,32.44-14.3,19.06,0,32,9.8,32,27.4V348c0,16.81-11.65,23.7-26.08,26.61L143,382.64h-13.5ZM125.11,393h21.45v21.18H125.11Z"/></g></svg>