<svg xmlns="http://www.w3.org/2000/svg" viewBox="0 0 512 512"><defs><style>.cls-1{fill:#fff;}</style></defs><title>Artboard 10</title><g id="Layer_2" data-name="Layer 2"><path class="cls-1" d="M376.42,425H157.59a31.12,31.12,0,0,1-31.09-31.09V113.29a31.12,31.12,0,0,1,31.09-31.09H376.42a31.12,31.12,0,0,1,31.09,31.09V393.95A31.12,31.12,0,0,1,376.42,425ZM157.59,107.21a6.09,6.09,0,0,0-6.09,6.09V393.95a6.09,6.09,0,0,0,6.09,6.09H376.42a6.09,6.09,0,0,0,6.09-6.09V113.29a6.09,6.09,0,0,0-6.09-6.09Z"/><rect class="cls-1" x="184.87" y="265.2" width="164.27" height="20"/><polygon class="cls-1" points="282 189.39 282 138.67 252 138.67 252 189.39 212.34 189.39 267 244.04 321.67 189.39 282 189.39"/><path class="cls-1" d="M186.43,314.36h19.9c18.28,0,28.93,10.57,28.93,25.41v.15c0,14.83-10.79,25.85-29.22,25.85h-19.6Zm14.24,12.56v26.21h5.8c8.59,0,14.24-4.7,14.24-13V340c0-8.22-5.65-13.07-14.24-13.07Z"/><path class="cls-1" d="M241,340.2v-.15c0-14.76,11.89-26.73,27.75-26.73s27.61,11.82,27.61,26.58v.15c0,14.76-11.89,26.73-27.75,26.73S241,355,241,340.2Zm40.75,0v-.15c0-7.49-5.29-13.88-13.14-13.88s-13.07,6.31-13.07,13.73v.15c0,7.42,5.36,13.88,13.22,13.88S281.73,347.62,281.73,340.2Z"/><path class="cls-1" d="M302,340.2v-.15c0-15,11.45-26.73,27-26.73,10.5,0,17.25,4.41,21.81,10.65l-10.72,8.3c-2.94-3.6-6.31-6-11.23-6-7.2,0-12.26,6.17-12.26,13.66v.15c0,7.71,5.07,13.73,12.26,13.73,5.36,0,8.52-2.5,11.6-6.24l10.72,7.64c-4.85,6.68-11.38,11.6-22.69,11.6A26.1,26.1,0,0,1,302,340.2Z"/></g></svg>