<svg xmlns="http://www.w3.org/2000/svg" viewBox="0 0 512 512"><defs><style>.cls-1{fill:#fff;}</style></defs><title>Artboard 2</title><g id="Layer_2" data-name="Layer 2"><circle class="cls-1" cx="256.81" cy="185.92" r="32.56"/><path class="cls-1" d="M283.13,224.45H228.87a30.39,30.39,0,0,0-30.39,30.39h0v30.39h115V254.83h0A30.39,30.39,0,0,0,283.13,224.45Z"/><path class="cls-1" d="M390.09,88.13H121.91A42,42,0,0,0,80,130V334.48a42,42,0,0,0,41.91,41.91H199l-11.41,24.75-43.82,14.48c-3.54,3.64-.08,8.75,5.92,8.75H362.28c6,0,9.47-5.12,5.92-8.75l-44.07-14.78-11.22-24.45h77.17A42,42,0,0,0,432,334.48V130A42,42,0,0,0,390.09,88.13ZM256.81,363.39A10.19,10.19,0,1,1,267,353.2,10.19,10.19,0,0,1,256.81,363.39Zm150.81-36.71H104.38V130a17.55,17.55,0,0,1,17.53-17.53H390.09A17.55,17.55,0,0,1,407.62,130Z"/></g></svg>