<svg xmlns="http://www.w3.org/2000/svg" viewBox="0 0 512 512"><defs><style>.cls-1{fill:#fff;}</style></defs><title>Artboard 3</title><g id="Layer_2" data-name="Layer 2"><path class="cls-1" d="M333,253.35H177.7V154H333ZM196.6,234.45H314.09V172.89H196.6Z"/><path class="cls-1" d="M397.53,79.73H113.16A32.71,32.71,0,0,0,80.48,112.4V396.77a32.72,32.72,0,0,0,32.68,32.68H397.53a32.72,32.72,0,0,0,32.68-32.68V112.4A32.71,32.71,0,0,0,397.53,79.73ZM161.15,95.88a8.33,8.33,0,1,1-8.33,8.33A8.33,8.33,0,0,1,161.15,95.88Zm-23.48,0a8.33,8.33,0,1,1-8.33,8.33A8.33,8.33,0,0,1,137.67,95.88Zm-31.81,8.33a8.33,8.33,0,1,1,8.33,8.33A8.33,8.33,0,0,1,105.86,104.22ZM402,396.77a4.5,4.5,0,0,1-4.5,4.5H113.16a4.5,4.5,0,0,1-4.5-4.5V128.7H402Z"/><rect class="cls-1" x="177.7" y="315.23" width="155.29" height="18.91"/><rect class="cls-1" x="177.7" y="274.84" width="155.29" height="18.91"/><rect class="cls-1" x="177.96" y="355.63" width="106.11" height="18.91"/></g></svg>