<svg xmlns="http://www.w3.org/2000/svg" viewBox="0 0 512 512"><defs><style>.cls-1{fill:#fff;}</style></defs><title>canvas6</title><g id="Layer_2" data-name="Layer 2"><path class="cls-1" d="M352.32,245.1H197V145.72h155.3ZM215.93,226.19H333.41V164.63H215.93Z"/><rect class="cls-1" x="197.02" y="306.98" width="155.3" height="18.91"/><rect class="cls-1" x="197.02" y="266.58" width="155.3" height="18.91"/><rect class="cls-1" x="197.28" y="347.37" width="106.11" height="18.91"/><path class="cls-1" d="M398.19,81.14H113.81a32.72,32.72,0,0,0-32.68,32.68V398.18a32.72,32.72,0,0,0,32.68,32.68H398.19a32.72,32.72,0,0,0,32.68-32.68V113.82A32.72,32.72,0,0,0,398.19,81.14ZM131.79,308.58H102.43v-5h29.36ZM109,287.2a8.6,8.6,0,1,1,8.6,8.6A8.6,8.6,0,0,1,109,287.2Zm22.76-32.62H102.43v-5h29.36ZM109,233.2a8.6,8.6,0,1,1,8.6,8.6A8.6,8.6,0,0,1,109,233.2Zm22.76-32.62H102.43v-5h29.36ZM109,179.2a8.6,8.6,0,1,1,8.6,8.6A8.6,8.6,0,0,1,109,179.2Zm7.6-34.24a17.2,17.2,0,1,1,17.2-17.2A17.2,17.2,0,0,1,116.63,145ZM402.68,398.18a4.5,4.5,0,0,1-4.5,4.5H150.53V109.32H398.19a4.5,4.5,0,0,1,4.5,4.5Z"/></g></svg>