<svg xmlns="http://www.w3.org/2000/svg" viewBox="0 0 512 512"><defs><style>.cls-1{fill:#fff;}</style></defs><title>Artboard 5</title><g id="Layer_2" data-name="Layer 2"><rect class="cls-1" x="155.77" y="159.31" width="164.27" height="20"/><rect class="cls-1" x="155.77" y="116.58" width="70.39" height="20"/><path class="cls-1" d="M195,342.69c0-4.2.21-8.36.59-12.46H156v20h39.19C195.09,347.73,195,345.22,195,342.69Z"/><path class="cls-1" d="M207.21,287.5H155.77v20h44A129.69,129.69,0,0,1,207.21,287.5Z"/><path class="cls-1" d="M239.18,244.77H155.77v20h65A131.4,131.4,0,0,1,239.18,244.77Z"/><path class="cls-1" d="M320,212.17V202H155.77v20H275.45A130,130,0,0,1,320,212.17Z"/><path class="cls-1" d="M200.31,379.6H128.49a6.09,6.09,0,0,1-6.09-6.09V92.87a6.09,6.09,0,0,1,6.09-6.09H347.32a6.09,6.09,0,0,1,6.09,6.09V215a129.64,129.64,0,0,1,25,8.13V92.87a31.12,31.12,0,0,0-31.09-31.09H128.49A31.12,31.12,0,0,0,97.4,92.87V373.52a31.12,31.12,0,0,0,31.09,31.09h82.1A129.82,129.82,0,0,1,200.31,379.6Z"/><path class="cls-1" d="M325.65,233.19A109.49,109.49,0,1,0,435.15,342.69,109.49,109.49,0,0,0,325.65,233.19ZM309.8,384.38l-27.06,1.22L284,358.54l61.13-61.13,25.84,25.84Zm67.12-67.12-25.84-25.84,5.66-5.66,25.84,25.84Z"/></g></svg>