<svg xmlns="http://www.w3.org/2000/svg" viewBox="0 0 512 512"><defs><style>.cls-1{fill:#fff;}</style></defs><title>Artboard 6</title><g id="Layer_2" data-name="Layer 2"><rect class="cls-1" x="245.42" y="140.76" width="96.84" height="18.92"/><path class="cls-1" d="M219.43,298.08A28.67,28.67,0,1,0,211.91,334,130,130,0,0,1,219.43,298.08Zm-25.29,26.75a13.29,13.29,0,1,1,13.29-13.29A13.3,13.3,0,0,1,194.14,324.82Z"/><path class="cls-1" d="M291.14,222.42H245.42v18.92h14.4A130.6,130.6,0,0,1,291.14,222.42Z"/><path class="cls-1" d="M216.91,379.6H146.59a6.09,6.09,0,0,1-6.09-6.09V92.87a6.09,6.09,0,0,1,6.09-6.09H365.41a6.09,6.09,0,0,1,6.09,6.09V215.33a129.66,129.66,0,0,1,25,8.47V92.87a31.12,31.12,0,0,0-31.09-31.09H146.59A31.12,31.12,0,0,0,115.5,92.87V373.52a31.12,31.12,0,0,0,31.09,31.09h80.61A129.82,129.82,0,0,1,216.91,379.6Z"/><path class="cls-1" d="M359.32,322.06a17,17,0,0,0-17-17h-.13a17,17,0,0,0-17,17v8.42h34.13Z"/><path class="cls-1" d="M342.26,233.19A109.49,109.49,0,1,0,451.75,342.69,109.49,109.49,0,0,0,342.26,233.19Zm41,148.17a6.45,6.45,0,0,1-6.45,6.45h-69.1a6.45,6.45,0,0,1-6.45-6.45V336.93a6.45,6.45,0,0,1,6.45-6.45h2.49v-8.42a32,32,0,0,1,32-32h.13a32,32,0,0,1,32,32v8.42h2.49a6.45,6.45,0,0,1,6.45,6.45Z"/><circle class="cls-1" cx="342.26" cy="359.15" r="8.93"/><path class="cls-1" d="M194.14,178.18a28.65,28.65,0,1,1,28.65-28.65A28.69,28.69,0,0,1,194.14,178.18Zm0-41.94a13.29,13.29,0,1,0,13.29,13.29A13.3,13.3,0,0,0,194.14,136.24Z"/><path class="cls-1" d="M194.14,259.53a28.65,28.65,0,1,1,28.65-28.65A28.69,28.69,0,0,1,194.14,259.53Zm0-41.94a13.29,13.29,0,1,0,13.29,13.29A13.3,13.3,0,0,0,194.14,217.59Z"/></g></svg>