<svg xmlns="http://www.w3.org/2000/svg" viewBox="0 0 512 512"><defs><style>.cls-1{fill:#fff;}</style></defs><title>Artboard 7</title><g id="Layer_2" data-name="Layer 2"><path class="cls-1" d="M410.39,99.93H95.47a25.29,25.29,0,0,0-25.26,25.26V373.95a25.29,25.29,0,0,0,25.26,25.26H410.39a25.29,25.29,0,0,0,25.26-25.26V125.19A25.29,25.29,0,0,0,410.39,99.93ZM153.28,116.38a8.82,8.82,0,1,1-8.82,8.82A8.82,8.82,0,0,1,153.28,116.38Zm-24.83,0a8.82,8.82,0,1,1-8.82,8.82A8.82,8.82,0,0,1,128.45,116.38ZM94.8,125.19a8.82,8.82,0,1,1,8.82,8.82A8.82,8.82,0,0,1,94.8,125.19ZM95.52,374l0-222.87H410.34l0,222.81Z"/><path class="cls-1" d="M155.65,225.49H186.4c18,0,29.63,9.3,29.63,25v.2c0,17-13,25.85-30.65,25.85h-9.91V297H155.65ZM185,261c6.95,0,11.34-3.78,11.34-9.4v-.2c0-6.13-4.39-9.3-11.44-9.3h-9.4V261Z"/><path class="cls-1" d="M224.4,225.49h30.75c18,0,29.63,9.3,29.63,25v.2c0,17-13,25.85-30.65,25.85h-9.91V297H224.4ZM253.72,261c6.95,0,11.34-3.78,11.34-9.4v-.2c0-6.13-4.39-9.3-11.44-9.3h-9.4V261Z"/><path class="cls-1" d="M310.62,242.86H289.27V225.49h62.62v17.37H330.44V297H310.62Z"/></g></svg>