<svg xmlns="http://www.w3.org/2000/svg" viewBox="0 0 512 512"><defs><style>.cls-1{fill:#fff;}</style></defs><title>Artboard 8</title><g id="Layer_2" data-name="Layer 2"><rect class="cls-1" x="128.67" y="159.31" width="164.27" height="20"/><rect class="cls-1" x="128.67" y="116.58" width="70.39" height="20"/><path class="cls-1" d="M167.91,342.69c0-4.2.21-8.36.59-12.46H128.94v20h39.19C168,347.73,167.91,345.22,167.91,342.69Z"/><path class="cls-1" d="M180.11,287.5H128.67v20h44A129.69,129.69,0,0,1,180.11,287.5Z"/><path class="cls-1" d="M212.07,244.77H128.67v20h65A131.4,131.4,0,0,1,212.07,244.77Z"/><path class="cls-1" d="M292.94,212.17V202H128.67v20H248.35A130,130,0,0,1,292.94,212.17Z"/><path class="cls-1" d="M194.36,421.51H144.29a6.09,6.09,0,0,1-6.09-6.09V404.6h45.28a129.83,129.83,0,0,1-10.28-25H101.39a6.1,6.1,0,0,1-6.09-6.09V92.87a6.09,6.09,0,0,1,6.09-6.09H320.21a6.09,6.09,0,0,1,6.09,6.09V215a129.65,129.65,0,0,1,25,8.13V128.69h11.82a6.09,6.09,0,0,1,6.09,6.09v98a131.28,131.28,0,0,1,25,20.93V134.77a31.12,31.12,0,0,0-31.09-31.09H351.3V92.87a31.12,31.12,0,0,0-31.09-31.09H101.39A31.12,31.12,0,0,0,70.3,92.87V373.52a31.12,31.12,0,0,0,31.09,31.09h11.82v10.82a31.12,31.12,0,0,0,31.09,31.09h75A131.4,131.4,0,0,1,194.36,421.51Z"/><path class="cls-1" d="M298.55,233.19A109.49,109.49,0,1,0,408,342.69,109.49,109.49,0,0,0,298.55,233.19Zm0,25a84,84,0,0,1,49.29,15.93L230,392a84.43,84.43,0,0,1,68.56-133.79Zm0,169a84,84,0,0,1-51.13-17.28L365.76,291.56a84.44,84.44,0,0,1-67.21,135.62Z"/></g></svg>