<svg xmlns="http://www.w3.org/2000/svg" viewBox="0 0 512 512"><defs><style>.cls-1{fill:#fff;}</style></defs><title>Artboard 9</title><g id="Layer_2" data-name="Layer 2"><circle class="cls-1" cx="321.06" cy="155.84" r="14.17"/><path class="cls-1" d="M332.52,172.61H308.89a13.23,13.23,0,0,0-13.23,13.23h0v13.23h50.08V185.84h0A13.23,13.23,0,0,0,332.52,172.61Z"/><circle class="cls-1" cx="183.06" cy="155.84" r="14.17"/><path class="cls-1" d="M194.52,172.61H170.89a13.23,13.23,0,0,0-13.23,13.23h0v13.23h50.08V185.84h0A13.23,13.23,0,0,0,194.52,172.61Z"/><rect class="cls-1" x="214.45" y="246" width="129.78" height="20"/><rect class="cls-1" x="214.45" y="300" width="129.78" height="20"/><rect class="cls-1" x="214.45" y="354" width="129.78" height="20"/><path class="cls-1" d="M361.32,427.41H142.5a31.12,31.12,0,0,1-31.09-31.09V115.67A31.12,31.12,0,0,1,142.5,84.59H361.32a31.12,31.12,0,0,1,31.09,31.09V396.33A31.12,31.12,0,0,1,361.32,427.41ZM142.5,109.59a6.09,6.09,0,0,0-6.09,6.09V396.33a6.09,6.09,0,0,0,6.09,6.09H361.32a6.09,6.09,0,0,0,6.09-6.09V115.67a6.09,6.09,0,0,0-6.09-6.09Z"/><polygon class="cls-1" points="284.96 172.98 266.75 154.76 266.75 166.98 237.14 166.98 237.14 154.76 218.92 172.98 237.14 191.21 237.14 178.98 266.75 178.98 266.75 191.21 284.96 172.98"/><path class="cls-1" d="M196.79,266H157V226.22h39.76Zm-28.11-11.65h16.46V237.87H168.68Z"/><path class="cls-1" d="M196.79,320.34H157V280.58h39.76Zm-28.11-11.65h16.46V292.23H168.68Z"/><path class="cls-1" d="M196.79,374.88H157V335.12h39.76Zm-28.11-11.65h16.46V346.77H168.68Z"/></g></svg>