<svg xmlns="http://www.w3.org/2000/svg" viewBox="0 0 512 512"><defs><style>.cls-1{fill:#fff;}</style></defs><title>Artboard 10 copy 3</title><g id="Layer_2" data-name="Layer 2"><circle class="cls-1" cx="115.69" cy="220.66" r="34.48"/><path class="cls-1" d="M143.56,261.46H86.1a32.18,32.18,0,0,0-32.18,32.18h0v32.18H175.74V293.64h0A32.18,32.18,0,0,0,143.56,261.46Z"/><circle class="cls-1" cx="256.86" cy="220.66" r="34.48"/><path class="cls-1" d="M284.73,261.46H227.27a32.18,32.18,0,0,0-32.18,32.18h0v32.18H316.91V293.64h0A32.18,32.18,0,0,0,284.73,261.46Z"/><circle class="cls-1" cx="398.03" cy="220.66" r="34.48"/><path class="cls-1" d="M425.9,261.46H368.44a32.18,32.18,0,0,0-32.18,32.18h0v32.18H458.08V293.64h0A32.18,32.18,0,0,0,425.9,261.46Z"/></g></svg>