<svg xmlns="http://www.w3.org/2000/svg" viewBox="0 0 512 512"><defs><style>.cls-1{fill:#fff;}</style></defs><title>Artboard 10 copy 2</title><g id="Layer_2" data-name="Layer 2"><circle class="cls-1" cx="141.15" cy="325.61" r="28.22"/><path class="cls-1" d="M164,359h-47a26.34,26.34,0,0,0-26.34,26.34h0v26.34h99.71V385.35h0A26.34,26.34,0,0,0,164,359Z"/><circle class="cls-1" cx="137.63" cy="133.24" r="32.92"/><circle class="cls-1" cx="256.7" cy="325.61" r="28.22"/><path class="cls-1" d="M279.52,359h-47a26.34,26.34,0,0,0-26.34,26.34h0v26.34h99.71V385.35h0A26.34,26.34,0,0,0,279.52,359Z"/><circle class="cls-1" cx="372.25" cy="325.61" r="28.22"/><path class="cls-1" d="M395.07,359H348a26.34,26.34,0,0,0-26.34,26.34h0v26.34h99.71V385.35h0A26.34,26.34,0,0,0,395.07,359Z"/><path class="cls-1" d="M267,182.76a10.82,10.82,0,0,0-15.3-.3L215.1,217.59,171,181.8a20.17,20.17,0,0,0-13.44-5.29H117.66c-12.35,0-22.36,11.79-22.36,26.34h0v73.37H180V216.92l28.93,23.49c.17.14.34.26.52.38l.25.18c.28.19.56.36.85.52l.31.15.62.3.34.13.63.23.33.1.67.17.31.07.74.11.25,0c.33,0,.67,0,1,0h0a10.89,10.89,0,0,0,1.09-.06l.32,0c.26,0,.52-.07.78-.13l.37-.09.71-.2.38-.13.67-.27.38-.17c.21-.1.42-.22.63-.34l.37-.21c.21-.13.42-.28.63-.43l.31-.22a10.92,10.92,0,0,0,.83-.72l0,0,0,0,43.38-41.7A10.82,10.82,0,0,0,267,182.76Z"/><polygon class="cls-1" points="204.1 257.54 402.59 257.54 402.59 119 222.92 119 222.92 191.26 215.1 198.77 204.1 189.84 204.1 100.31 421.41 100.31 421.41 276.23 204.1 276.23 204.1 257.54"/></g></svg>