<svg xmlns="http://www.w3.org/2000/svg" viewBox="0 0 512 512"><defs><style>.cls-1{fill:#fff;}</style></defs><title>Artboard 10 copy 5</title><g id="Layer_2" data-name="Layer 2"><circle class="cls-1" cx="261.36" cy="194.08" r="52.54"/><path class="cls-1" d="M259.17,311a65.49,65.49,0,0,1,29.52-54.76H216.27a49,49,0,0,0-49,49h0v49l94.13,52.86,54.12-31.26A65.57,65.57,0,0,1,259.17,311Z"/><path class="cls-1" d="M398,370.61l-33.47-30.16a49.72,49.72,0,1,0-9.22,9.48l33.84,30.5Zm-73.3-23.26A36.34,36.34,0,1,1,361.07,311,36.38,36.38,0,0,1,324.73,347.35Z"/></g></svg>