<svg xmlns="http://www.w3.org/2000/svg" viewBox="0 0 512 512"><defs><style>.cls-1{fill:#fff;}</style></defs><title>Artboard 10 copy 4</title><g id="Layer_2" data-name="Layer 2"><path class="cls-1" d="M256,88.81c-87.95,55.06-139.93,60-139.93,60s20,201.71,139.93,274.4c119.94-72.69,139.93-274.4,139.93-274.4S343.95,142.46,256,88.81Zm.71,78.77a28.6,28.6,0,1,1-28.6,28.6A28.59,28.59,0,0,1,256.71,167.59Zm49.8,115.81-51.34,24.55-49.7-24.55V256.71h0A26.69,26.69,0,0,1,232.17,230h47.66a26.69,26.69,0,0,1,26.69,26.69h0Z"/></g></svg>