<svg id="Layer_1" data-name="Layer 1" xmlns="http://www.w3.org/2000/svg" viewBox="0 0 512 512"><defs><style>.cls-1{fill:#fff;}</style></defs><title>Artboard 10 copy 6</title><path class="cls-1" d="M376.83,138.87H361.19v11.38H333.92V138.87H175.12v11.38H147.84V138.87H134.39a7.75,7.75,0,0,0-7.76,7.75V354.54a7.75,7.75,0,0,0,7.76,7.76h13.45V350.91h27.27V362.3h158.8V350.91h27.27V362.3h15.63a7.75,7.75,0,0,0,7.75-7.76V146.62A7.75,7.75,0,0,0,376.83,138.87Zm-201.71,179H147.84V295.06h27.27Zm0-55.86H147.84V239.2h27.27Zm0-55.86H147.84V183.34h27.27ZM298.57,255.2l-64,37a5.33,5.33,0,0,1-8-4.61V213.62a5.33,5.33,0,0,1,8-4.61l64,37A5.33,5.33,0,0,1,298.57,255.2Zm62.63,62.63H333.92V295.06h27.27Zm0-55.86H333.92V239.2h27.27Zm0-55.86H333.92V183.34h27.27Z"/></svg>